<?xml version="1.0" standalone="no"?>
<!DOCTYPE svg PUBLIC "-//W3C//DTD SVG 20010904//EN"
 "http://www.w3.org/TR/2001/REC-SVG-20010904/DTD/svg10.dtd">
<svg version="1.0" xmlns="http://www.w3.org/2000/svg"
 width="205.000000pt" height="99.000000pt" viewBox="0 0 205.000000 99.000000"
 preserveAspectRatio="xMidYMid meet">

<g transform="translate(0.000000,99.000000) scale(0.100000,-0.100000)"
fill="#000000" stroke="none">
<path d="M20 966 c-26 -32 -5 -46 72 -48 142 -4 153 -5 176 -12 17 -6 22 -15
22 -41 0 -19 -5 -37 -12 -41 -7 -4 -52 -11 -100 -14 -74 -5 -92 -10 -114 -31
-57 -53 -68 -125 -29 -185 33 -51 83 -64 263 -64 l162 0 0 -67 0 -66 -214 6
c-180 5 -216 4 -226 -8 -31 -37 -10 -42 219 -50 l221 -7 0 -129 0 -129 -187 0
c-174 0 -263 -10 -263 -28 0 -30 30 -32 449 -31 235 0 444 3 466 7 31 6 40 12
40 27 0 19 -8 20 -222 23 l-223 2 0 129 0 128 68 6 c37 4 136 7 220 7 127 0
154 3 158 15 4 8 0 22 -7 31 -12 14 -33 15 -170 9 -86 -4 -181 -4 -213 0 l-56
7 0 59 0 59 128 0 c217 0 275 18 308 97 10 24 12 44 5 74 -17 77 -69 109 -177
109 -56 0 -70 3 -85 22 -21 24 -17 55 9 76 15 11 79 16 165 12 38 -2 97 16 97
29 0 24 -32 31 -145 31 -102 0 -124 -3 -149 -19 -54 -36 -69 -87 -41 -141 27
-52 61 -70 132 -70 72 0 120 -19 132 -53 10 -28 -5 -74 -29 -87 -10 -6 -93
-10 -184 -10 l-166 0 -2 188 -3 187 -25 0 -25 0 -3 -187 -2 -188 -174 0 -175
0 -20 26 c-27 34 -26 57 2 90 21 25 32 28 108 32 94 5 125 20 145 67 17 42 3
103 -31 133 -24 20 -36 22 -140 22 -62 0 -120 2 -128 5 -7 3 -20 -1 -27 -9z"/>
<path d="M1175 973 c-87 -4 -100 -10 -91 -41 7 -20 13 -20 180 -15 l173 6 10
-29 c5 -16 6 -42 2 -59 -5 -16 -11 -42 -14 -57 l-5 -28 -140 0 -139 0 -37 -32
c-41 -36 -41 -33 -5 -208 25 -120 22 -220 -10 -375 -15 -76 -16 -92 -5 -103
24 -24 53 2 64 55 39 183 40 304 2 482 -15 70 -17 97 -9 107 9 11 45 14 144
14 l133 0 -5 -211 c-6 -204 7 -417 27 -450 7 -10 14 -10 33 -2 23 11 24 15 17
55 -4 24 -13 106 -20 183 -13 151 -5 301 27 528 l16 118 -26 26 c-39 39 -93
45 -322 36z"/>
<path d="M1975 964 c-45 -46 -50 -70 -55 -304 -3 -124 -9 -231 -13 -237 -6 -9
-42 -13 -123 -13 l-115 0 3 223 3 222 -31 55 c-24 42 -37 56 -58 58 -22 3 -26
-1 -26 -20 0 -13 6 -32 14 -43 32 -48 38 -100 45 -397 l6 -301 27 -20 c21 -16
50 -22 120 -27 112 -8 146 -24 194 -90 31 -43 38 -48 55 -39 24 12 19 36 -18
91 -39 58 -116 91 -222 96 -99 5 -111 13 -111 78 0 29 5 44 16 48 9 3 61 6
116 6 103 0 147 13 165 49 4 9 10 110 13 226 5 204 6 212 33 270 26 56 27 60
11 72 -23 17 -29 16 -49 -3z"/>
</g>
</svg>
